<svg width="16" height="16" viewBox="0 0 16 16" fill="none" xmlns="http://www.w3.org/2000/svg">
<path d="M3.16853 0.308388H12.4315C14.1806 0.31031 15.598 1.69525 15.6 3.40409V9.86705C15.598 11.5761 14.1806 12.961 12.4317 12.9629H9.99857L7.8 15.1111L5.60144 12.9629H3.16853C1.4194 12.961 0.00196773 11.5761 0 9.86722V3.40429C0.00196773 1.69523 1.41959 0.31031 3.16853 0.308388ZM12.4315 11.9468C13.6065 11.9456 14.5588 11.0152 14.56 9.86718V3.40429C14.5588 2.25614 13.6065 1.3257 12.4316 1.32454H3.16853C1.99346 1.3257 1.04116 2.25614 1.03998 3.40415V9.86704C1.04116 11.0152 1.99346 11.9456 3.16841 11.9468H6.03268L7.8 13.6736L9.5673 11.9468H12.4315Z" fill="white"/>
</svg>
