<svg width="25" height="25" viewBox="0 0 25 25" fill="none" xmlns="http://www.w3.org/2000/svg">
<path d="M7.9918 24.4061L6.29391 21.4143L3.07377 20.6816C2.78103 20.6206 2.54684 20.463 2.37119 20.209C2.19555 19.955 2.12724 19.675 2.16628 19.3689L2.48829 15.9192L0.29274 13.2937C0.09758 13.0699 0 12.8053 0 12.5C0 12.1947 0.09758 11.9301 0.29274 11.7063L2.48829 9.08082L2.16628 5.63111C2.12724 5.32582 2.19555 5.04578 2.37119 4.79097C2.54684 4.53616 2.78103 4.37863 3.07377 4.31839L6.29391 3.5857L7.9918 0.593921C8.14793 0.329341 8.36261 0.151055 8.63583 0.0590632C8.90906 -0.032929 9.18228 -0.0174613 9.4555 0.105466L12.5 1.44872L15.5445 0.105466C15.8177 -0.0166472 16.0909 -0.0321149 16.3642 0.0590632C16.6374 0.150241 16.8521 0.328527 17.0082 0.593921L18.7061 3.5857L21.9262 4.31839C22.219 4.37944 22.4532 4.53738 22.6288 4.79219C22.8045 5.047 22.8728 5.32664 22.8337 5.63111L22.5117 9.08082L24.7073 11.7063C24.9024 11.9301 25 12.1947 25 12.5C25 12.8053 24.9024 13.0699 24.7073 13.2937L22.5117 15.9192L22.8337 19.3689C22.8728 19.6742 22.8045 19.9542 22.6288 20.209C22.4532 20.4638 22.219 20.6214 21.9262 20.6816L18.7061 21.4143L17.0082 24.4061C16.8521 24.6707 16.6374 24.8489 16.3642 24.9409C16.0909 25.0329 15.8177 25.0175 15.5445 24.8945L12.5 23.5513L9.4555 24.8945C9.18228 25.0166 8.90906 25.0321 8.63583 24.9409C8.36261 24.8498 8.14793 24.6715 7.9918 24.4061Z" fill="#1E3167"/>
</svg>
